<svg id="Capa_1" enable-background="new 0 0 506.484 506.484" height="512" viewBox="0 0 506.484 506.484" width="512" xmlns="http://www.w3.org/2000/svg"><g><path d="m493.992 197.107-15.568-8.987c10.807-18.503 17.011-40.009 17.011-62.938 0-69.026-56.157-125.182-125.181-125.182-46.401 0-86.986 25.377-108.606 62.982l-4.659-2.687c-2.32-1.338-5.177-1.337-7.497.002l-96.241 55.556v-45.24c0-10.813-10.071-19.61-22.45-19.61h-43.72c-12.379 0-22.45 8.797-22.45 19.61v19.63c0 4.143 3.358 7.5 7.5 7.5s7.5-3.357 7.5-7.5v-19.63c0-2.177 3.186-4.61 7.45-4.61h43.72c4.264 0 7.45 2.434 7.45 4.61v53.899l-58.62 33.839v-34.108c0-4.143-3.358-7.5-7.5-7.5s-7.5 3.357-7.5 7.5v42.767l-52.155 30.107c-8.156 4.733-10.961 15.234-6.25 23.416l24.615 42.632c2.286 3.97 5.981 6.809 10.405 7.994 1.477.396 2.974.591 4.462.591 2.616 0 5.202-.606 7.583-1.791v157.784c0 4.143 3.358 7.5 7.5 7.5s7.5-3.357 7.5-7.5v-166.405l180.865-104.408c14.09 53.7 63.039 93.432 121.097 93.432 13.407 0 26.325-2.127 38.444-6.047l29.484 17.019v35.409c0 4.143 3.358 7.5 7.5 7.5s7.5-3.357 7.5-7.5v-26.79c2.387 1.189 4.976 1.797 7.595 1.797 1.488 0 2.985-.195 4.46-.591 4.424-1.186 8.119-4.024 10.4-7.986l24.625-42.647c4.707-8.175 1.901-18.676-6.269-23.419zm-447.239 59.345c-.636.369-1.235.322-1.625.217-.387-.104-.924-.359-1.291-.997l-24.616-42.632c-.594-1.031-.241-2.355.77-2.942l233.253-134.647 1.71.986c-6.361 14.989-9.881 31.463-9.881 48.744 0 5.483.357 10.885 1.044 16.184zm213.319-131.27c0-60.754 49.428-110.182 110.182-110.182s110.181 49.428 110.181 110.182-49.427 110.181-110.181 110.181-110.182-49.427-110.182-110.181zm227.195 87.85-24.625 42.647c-.362.63-.899.886-1.286.989-.39.106-.989.152-1.634-.222l-33.481-19.326c17.268-8.672 32.264-21.219 43.84-36.499l16.398 9.466c1.025.598 1.377 1.922.788 2.945z"/><path d="m445.682 323.242c-4.142 0-7.5 3.357-7.5 7.5v146.92c0 7.62-6.2 13.82-13.82 13.82h-158.62v-157.668c0-15.047-12.242-27.289-27.29-27.289h-91.923c-15.047 0-27.29 12.242-27.29 27.289v157.668h-37.127c-7.621 0-13.82-6.2-13.82-13.82v-15.92c0-4.143-3.358-7.5-7.5-7.5s-7.5 3.357-7.5 7.5v15.92c0 15.892 12.929 28.82 28.82 28.82h44.589c.013 0 .026.002.039.002s.026-.002.039-.002h131.425c.013 0 .026.002.039.002s.026-.002.039-.002h166.081c15.891 0 28.82-12.929 28.82-28.82v-146.92c-.001-4.142-3.359-7.5-7.501-7.5zm-311.443 10.572c0-6.776 5.513-12.289 12.29-12.289h91.923c6.776 0 12.29 5.513 12.29 12.289v157.668h-116.503z"/><path d="m400.395 424.161c7.695 0 13.956-6.261 13.956-13.956v-90.793c0-7.695-6.261-13.956-13.956-13.956h-86.517c-7.695 0-13.956 6.261-13.956 13.956v90.793c0 7.695 6.261 13.956 13.956 13.956zm-85.473-103.705h84.429v88.705h-84.429z"/><path d="m430.361 76.328c-3.274-2.539-7.984-1.945-10.523 1.328l-61.225 78.912-38.397-40.958c-2.833-3.021-7.58-3.176-10.601-.342-3.022 2.833-3.175 7.579-.342 10.602l44.408 47.368c1.421 1.516 3.403 2.37 5.471 2.37.116 0 .233-.003.35-.008 2.193-.103 4.23-1.16 5.576-2.895l66.612-85.854c2.539-3.272 1.944-7.984-1.329-10.523z"/></g></svg>