<?xml version="1.0"?>
<svg xmlns="http://www.w3.org/2000/svg" viewBox="0 0 512 512" width="512" height="512"><g id="Outline"><path d="M59.314,464H448V448H64V310.333H48V452.686l-16,16V43.314l16,16V241H64V64H237.667V48H59.314l-16-16H468.686l-16,16H310.333V64H448V278.333h16V59.314l16-16V307.667h16V24a8,8,0,0,0-8-8H24a8,8,0,0,0-8,8V488a8,8,0,0,0,8,8H468.333V480H43.314Z"/><path d="M472,355.314l26.343,26.343,11.314-11.314L483.314,344l2.343-2.343a8,8,0,0,0,0-11.314l-112-112A8,8,0,0,0,368,216H249.686L240,205.954v-58.64l61.657-61.657a8,8,0,0,0,0-11.314l-24-24a8,8,0,0,0-11.314,0l-72,72,11.314,11.314L272,67.313,284.687,80,80,284.687,67.313,272,189.657,149.657l-11.314-11.314-128,128a8,8,0,0,0,0,11.314l24,24a8,8,0,0,0,11.314,0L147.314,240h56.147l13.132,13.617A23.987,23.987,0,0,0,232,296a24.028,24.028,0,0,0,24,24,24.028,24.028,0,0,0,24,24,24.028,24.028,0,0,0,24,24h22.891l47.355,49.108a24.942,24.942,0,0,0,41.542-9.118c.07,0,.141.01.212.01a7.974,7.974,0,0,0,5.657-2.343L424,403.314l66.343,66.343,11.314-11.314L435.314,392ZM233.4,248l-14.772-15.318L231.316,220l27,28ZM224,163.314v41.373L204.687,224H163.314ZM296,344v-8a8,8,0,0,0-8-8h-8a8.009,8.009,0,0,1-8-8v-8a8,8,0,0,0-8-8h-8a8.009,8.009,0,0,1-8-8v-8a8,8,0,0,0-8-8h-8a8,8,0,0,1,0-16h88V248H280.539l-15.426-16h99.574l104,104L416,388.687,407.314,380l38.343-38.343-11.314-11.314L396,368.686l-14.343-14.343A8,8,0,0,0,376,352H304A8.009,8.009,0,0,1,296,344Zm102.562,62.124a8.964,8.964,0,0,1-12.793-.117L349.118,368h23.569l27.282,27.283A8.953,8.953,0,0,1,398.562,406.124Z"/><rect x="360" y="76.273" width="16" height="175.454" transform="translate(-3.334 320.303) rotate(-46.848)"/><rect x="160" y="277.49" width="16" height="181.019" transform="translate(-211.009 226.579) rotate(-45)"/><rect x="376" y="82.745" width="16" height="90.51" transform="translate(21.954 309.004) rotate(-44.998)"/><rect x="120" y="338.745" width="16" height="90.51" transform="translate(-234.031 202.965) rotate(-44.998)"/></g></svg>
